<svg width="308" height="308" viewBox="0 0 308 308" fill="none" xmlns="http://www.w3.org/2000/svg">
<g filter="url(#filter0_d_0_152)">
<path d="M304 150C304 183.693 292.657 216.405 271.798 242.864C250.939 269.324 221.779 287.99 189.017 295.855C156.255 303.721 121.799 300.327 91.201 286.221C60.6031 272.116 35.6453 248.119 20.349 218.099C5.0528 188.078 0.309062 153.782 6.8822 120.736C13.4553 87.691 30.9625 57.8209 56.5828 35.9391C82.203 14.0574 114.444 1.43843 148.111 0.115646C181.778 -1.20714 214.91 8.84329 242.168 28.6474L197.734 89.8056C184.213 79.9822 167.779 74.9969 151.079 75.6531C134.379 76.3092 118.387 82.5686 105.678 93.4225C92.9699 104.277 84.2858 119.093 81.0254 135.484C77.7649 151.876 80.1179 168.888 87.7053 183.779C95.2927 198.67 107.672 210.573 122.85 217.57C138.027 224.567 155.118 226.25 171.369 222.348C187.62 218.447 202.084 209.188 212.431 196.063C222.778 182.939 228.404 166.713 228.404 150H304Z" fill="#742AFB"/>
<path d="M242.112 28.6073C254.851 37.8534 266.055 49.0469 275.312 61.7769L214.174 106.239C209.582 99.9244 204.025 94.3721 197.706 89.7857L242.112 28.6073Z" fill="#091A74"/>
<path d="M275.326 61.7956C284.582 74.527 291.776 88.6359 296.644 103.604L224.756 126.986C222.341 119.562 218.772 112.563 214.181 106.248L275.326 61.7956Z" fill="#2CA902"/>
<path d="M296.551 103.319C301.45 118.278 303.963 133.915 304 149.655L228.404 149.829C228.386 142.021 227.139 134.265 224.71 126.845L296.551 103.319Z" fill="#00B2FE"/>
</g>
<defs>
<filter id="filter0_d_0_152" x="-0.000190735" y="-0.00012207" width="308" height="308" filterUnits="userSpaceOnUse" color-interpolation-filters="sRGB">
<feFlood flood-opacity="0" result="BackgroundImageFix"/>
<feColorMatrix in="SourceAlpha" type="matrix" values="0 0 0 0 0 0 0 0 0 0 0 0 0 0 0 0 0 0 127 0" result="hardAlpha"/>
<feOffset dy="4"/>
<feGaussianBlur stdDeviation="2"/>
<feComposite in2="hardAlpha" operator="out"/>
<feColorMatrix type="matrix" values="0 0 0 0 0 0 0 0 0 0 0 0 0 0 0 0 0 0 0.25 0"/>
<feBlend mode="normal" in2="BackgroundImageFix" result="effect1_dropShadow_0_152"/>
<feBlend mode="normal" in="SourceGraphic" in2="effect1_dropShadow_0_152" result="shape"/>
</filter>
</defs>
</svg>
